REM DIRINDEX 1\2\5,1\2\6,1\2\7,1\2\8,1\3\9,1\3\10,1\3\11,1\4\12,1\4\13,1\4\14,1\4\15,1\4\16
REM DIRNAME cjc034,folder01,folder02,folder03,folder04,folder05,folder06,folder07,folder08,folder09,folder10,folder11,folder12,folder13,folder14,folder15
TITLE ""
FILE "1200_2_sec03_0872_0888.mp3" MP3
  TRACK 01 AUDIO
    TITLE "0:"
    INDEX 01 00:00:00
  TRACK 02 AUDIO
    TITLE "10:cjc034_01795"
    INDEX 01 00:00:15
  TRACK 03 AUDIO
    TITLE "0:"
    INDEX 01 00:01:28
  TRACK 04 AUDIO
    TITLE "9:cjc034_01796"
    INDEX 01 00:01:34
  TRACK 05 AUDIO
    TITLE "0:"
    INDEX 01 00:02:49
  TRACK 06 AUDIO
    TITLE "10:cjc034_01797"
    INDEX 01 00:03:25
  TRACK 07 AUDIO
    TITLE "0:"
    INDEX 01 00:05:48
  TRACK 08 AUDIO
    TITLE "9:cjc034_01798"
    INDEX 01 00:05:54
  TRACK 09 AUDIO
    TITLE "0:"
    INDEX 01 00:06:67
  TRACK 10 AUDIO
    TITLE "10:cjc034_01799"
    INDEX 01 00:07:54
  TRACK 11 AUDIO
    TITLE "0:"
    INDEX 01 00:08:62
  TRACK 12 AUDIO
    TITLE "9:cjc034_01800"
    INDEX 01 00:08:66
  TRACK 13 AUDIO
    TITLE "0:"
    INDEX 01 00:10:27
  TRACK 14 AUDIO
    TITLE "10:cjc034_01801"
    INDEX 01 00:11:09
  TRACK 15 AUDIO
    TITLE "0:"
    INDEX 01 00:13:35
  TRACK 16 AUDIO
    TITLE "9:cjc034_01802"
    INDEX 01 00:13:37
  TRACK 17 AUDIO
    TITLE "0:"
    INDEX 01 00:14:41
  TRACK 18 AUDIO
    TITLE "10:cjc034_01803"
    INDEX 01 00:15:25
  TRACK 19 AUDIO
    TITLE "0:"
    INDEX 01 00:17:39
  TRACK 20 AUDIO
    TITLE "9:cjc034_01804"
    INDEX 01 00:17:53
  TRACK 21 AUDIO
    TITLE "0:"
    INDEX 01 00:18:68
  TRACK 22 AUDIO
    TITLE "10:cjc034_01805"
    INDEX 01 00:19:48
  TRACK 23 AUDIO
    TITLE "0:"
    INDEX 01 00:20:55
  TRACK 24 AUDIO
    TITLE "9:cjc034_01806"
    INDEX 01 00:20:69
  TRACK 25 AUDIO
    TITLE "0:"
    INDEX 01 00:21:74
  TRACK 26 AUDIO
    TITLE "11:cjc034_01807"
    INDEX 01 00:23:48
  TRACK 27 AUDIO
    TITLE "0:"
    INDEX 01 00:27:47
  TRACK 28 AUDIO
    TITLE "10:cjc034_01808"
    INDEX 01 00:28:53
  TRACK 29 AUDIO
    TITLE "0:"
    INDEX 01 00:29:70
  TRACK 30 AUDIO
    TITLE "9:cjc034_01809"
    INDEX 01 00:30:01
  TRACK 31 AUDIO
    TITLE "0:"
    INDEX 01 00:30:71
  TRACK 32 AUDIO
    TITLE "10:cjc034_01810"
    INDEX 01 00:31:65
  TRACK 33 AUDIO
    TITLE "0:"
    INDEX 01 00:34:20
  TRACK 34 AUDIO
    TITLE "9:cjc034_01811"
    INDEX 01 00:34:24
  TRACK 35 AUDIO
    TITLE "0:"
    INDEX 01 00:35:19
  TRACK 36 AUDIO
    TITLE "10:cjc034_01812"
    INDEX 01 00:35:74
  TRACK 37 AUDIO
    TITLE "0:"
    INDEX 01 00:37:28
  TRACK 38 AUDIO
    TITLE "9:cjc034_01813"
    INDEX 01 00:37:30
  TRACK 39 AUDIO
    TITLE "0:"
    INDEX 01 00:38:61
  TRACK 40 AUDIO
    TITLE "10:cjc034_01814"
    INDEX 01 00:39:45
  TRACK 41 AUDIO
    TITLE "0:"
    INDEX 01 00:41:12
  TRACK 42 AUDIO
    TITLE "9:cjc034_01815"
    INDEX 01 00:41:14
  TRACK 43 AUDIO
    TITLE "0:"
    INDEX 01 00:42:10
  TRACK 44 AUDIO
    TITLE "10:cjc034_01816"
    INDEX 01 00:42:74
  TRACK 45 AUDIO
    TITLE "0:"
    INDEX 01 00:44:42
  TRACK 46 AUDIO
    TITLE "9:cjc034_01817"
    INDEX 01 00:44:44
  TRACK 47 AUDIO
    TITLE "0:"
    INDEX 01 00:45:69
  TRACK 48 AUDIO
    TITLE "10:cjc034_01818"
    INDEX 01 00:46:51
  TRACK 49 AUDIO
    TITLE "0:"
    INDEX 01 00:48:71
  TRACK 50 AUDIO
    TITLE "9:cjc034_01819"
    INDEX 01 00:48:73
  TRACK 51 AUDIO
    TITLE "0:"
    INDEX 01 00:50:05
  TRACK 52 AUDIO
    TITLE "10:cjc034_01820"
    INDEX 01 00:50:66
  TRACK 53 AUDIO
    TITLE "0:"
    INDEX 01 00:52:14
  TRACK 54 AUDIO
    TITLE "9:cjc034_01821"
    INDEX 01 00:52:20
  TRACK 55 AUDIO
    TITLE "0:"
    INDEX 01 00:53:41
  TRACK 56 AUDIO
    TITLE "10:cjc034_01822"
    INDEX 01 00:54:23
  TRACK 57 AUDIO
    TITLE "0:"
    INDEX 01 00:55:46
  TRACK 58 AUDIO
    TITLE "9:cjc034_01823"
    INDEX 01 00:55:53
  TRACK 59 AUDIO
    TITLE "0:"
    INDEX 01 00:56:55
  TRACK 60 AUDIO
    TITLE "11:cjc034_01824"
    INDEX 01 00:58:26
  TRACK 61 AUDIO
    TITLE "0:"
    INDEX 01 01:03:10
  TRACK 62 AUDIO
    TITLE "10:cjc034_01825"
    INDEX 01 01:04:13
  TRACK 63 AUDIO
    TITLE "0:"
    INDEX 01 01:06:55
  TRACK 64 AUDIO
    TITLE "9:cjc034_01826"
    INDEX 01 01:06:69
  TRACK 65 AUDIO
    TITLE "0:"
    INDEX 01 01:08:09
  TRACK 66 AUDIO
    TITLE "10:cjc034_01827"
    INDEX 01 01:08:64
  TRACK 67 AUDIO
    TITLE "0:"
    INDEX 01 01:11:51
  TRACK 68 AUDIO
    TITLE "9:cjc034_01828"
    INDEX 01 01:11:58
  TRACK 69 AUDIO
    TITLE "0:"
    INDEX 01 01:12:58
  TRACK 70 AUDIO
    TITLE "10:cjc034_01829"
    INDEX 01 01:13:42
  TRACK 71 AUDIO
    TITLE "0:"
    INDEX 01 01:15:62
  TRACK 72 AUDIO
    TITLE "9:cjc034_01830"
    INDEX 01 01:15:64
  TRACK 73 AUDIO
    TITLE "0:"
    INDEX 01 01:17:18
